Coordinates
version=1
nRows=13
nColumns=63
inDegrees=yes

Units are S.I. units (second, meters, Newtons, ...)
If the header above contains a line with 'inDegrees', this indicates whether rotational values are in degrees (yes) or radians (no).

endheader
time	pelvis_tilt	pelvis_list	pelvis_rotation	pelvis_tx	pelvis_ty	pelvis_tz	hip_flexion_r	hip_adduction_r	hip_rotation_r	knee_angle_r	knee_angle_r_beta	ankle_angle_r	subtalar_angle_r	mtp_angle_r	hip_flexion_l	hip_adduction_l	hip_rotation_l	knee_angle_l	knee_angle_l_beta	ankle_angle_l	subtalar_angle_l	mtp_angle_l	L5_S1_Flex_Ext	L5_S1_Lat_Bending	L5_S1_axial_rotation	L4_L5_Flex_Ext	L4_L5_Lat_Bending	L4_L5_axial_rotation	L3_L4_Flex_Ext	L3_L4_Lat_Bending	L3_L4_axial_rotation	L2_L3_Flex_Ext	L2_L3_Lat_Bending	L2_L3_axial_rotation	L1_L2_Flex_Ext	L1_L2_Lat_Bending	L1_L2_axial_rotation	L1_T12_Flex_Ext	L1_T12_Lat_Bending	L1_T12_axial_rotation	Abs_r3	Abs_r2	Abs_r1	Abs_t1	Abs_t2	neck_flexion	neck_bending	neck_rotation	arm_flex_r	arm_add_r	arm_rot_r	elbow_flex_r	pro_sup_r	wrist_flex_r	wrist_dev_r	arm_flex_l	arm_add_l	arm_rot_l	elbow_flex_l	pro_sup_l	wrist_flex_l	wrist_dev_l
2.169492	1.540814	-4.079746	84.387699	0.311760	0.776165	0.657581	-2.217933	1.614764	13.886272	3.483976	0.060807	18.958691	-1.820852	0.000000	-3.740859	-4.980636	-2.392469	2.742206	0.047861	21.384502	-1.330845	0.000000	-0.111649	0.821848	2.906814	-0.207342	1.093058	3.088490	-0.183427	1.998242	3.088490	-0.127603	1.998242	2.543463	-0.103677	1.675913	2.361787	-0.063796	1.273043	2.180111	-0.797494	9.296914	16.166829	0.000000	0.000000	24.309107	-9.750346	-0.089388	7.989460	-15.364073	96.485771	12.103381	6.263104	4.507412	-1.048783	1.526669	-12.902379	28.150362	63.991568	90.368478	-0.420211	16.656032
2.186441	1.835163	-3.845394	85.055208	0.310860	0.776387	0.657216	-2.573889	1.936105	13.618602	3.365236	0.058734	18.677703	-2.403685	0.000000	-3.905670	-5.300334	-1.591363	2.761339	0.048194	21.321941	-1.591058	0.000000	-0.115113	0.843470	2.813795	-0.213776	1.121815	2.989657	-0.189118	2.050813	2.989657	-0.131562	2.050813	2.462070	-0.106894	1.720004	2.286208	-0.065775	1.306535	2.110346	-0.822238	9.541501	15.649481	0.000000	0.000000	24.084763	-9.764864	-0.428286	7.705864	-15.183085	99.194907	11.358513	5.949592	4.563978	-1.502720	2.900330	-11.723399	34.619231	56.118986	86.034548	-1.356234	14.620360
2.203390	2.107604	-3.615084	85.766893	0.310145	0.776546	0.656512	-2.976497	2.249529	13.470095	3.176319	0.055437	18.377738	-3.172276	0.000000	-4.067320	-5.612646	-0.721452	2.797441	0.048825	21.264598	-1.898538	0.000000	-0.116231	0.857804	2.695856	-0.215852	1.140880	2.864347	-0.190955	2.085666	2.864347	-0.132840	2.085666	2.358874	-0.107932	1.749235	2.190383	-0.066414	1.328739	2.021892	-0.830224	9.703655	14.993541	0.000000	0.000000	23.925837	-9.692793	-0.735083	7.475593	-14.889153	102.632613	10.484116	5.569114	4.708766	-2.001397	4.294618	-10.696698	42.478683	48.558511	80.649149	-2.103775	12.450619
2.220339	2.320277	-3.395258	86.462764	0.309718	0.776630	0.655485	-3.408212	2.514498	13.467005	2.925482	0.051059	18.081148	-4.068041	0.000000	-4.215484	-5.878462	0.120397	2.869709	0.050086	21.245639	-2.204879	0.000000	-0.115530	0.859939	2.560660	-0.214551	1.143718	2.720701	-0.189804	2.090855	2.720701	-0.132039	2.090855	2.240577	-0.107281	1.753587	2.080536	-0.066014	1.332045	1.920495	-0.825218	9.727798	14.241621	0.000000	0.000000	23.836717	-9.454633	-1.015842	7.317269	-14.469380	106.774880	9.490776	5.105671	4.941478	-2.538115	5.642419	-9.883825	51.393572	41.465456	74.267531	-2.647127	10.108613
2.237288	2.479230	-3.192862	87.126015	0.309585	0.776648	0.654209	-3.842535	2.739914	13.506739	2.639177	0.046062	17.817129	-4.948587	0.000000	-4.358941	-6.107557	0.812713	2.937230	0.051264	21.290527	-2.331799	0.000000	-0.113137	0.851454	2.416190	-0.210107	1.132434	2.567202	-0.185873	2.070225	2.567202	-0.129304	2.070225	2.114166	-0.105059	1.736285	1.963154	-0.064646	1.318902	1.812142	-0.808126	9.631815	13.438123	0.000000	0.000000	23.820892	-9.115163	-1.285633	7.202222	-14.006806	110.778183	8.583849	4.891233	5.089327	-2.987189	6.953271	-9.290701	61.142853	34.979873	67.080997	-3.087485	7.830365
2.254237	2.567982	-3.011373	87.708457	0.309755	0.776597	0.652747	-4.265470	2.906424	13.808769	2.324007	0.040562	17.525304	-6.060254	0.000000	-4.483618	-6.261635	1.684567	3.022672	0.052756	21.327338	-2.838727	0.000000	-0.109756	0.831228	2.276616	-0.203829	1.105533	2.418905	-0.180319	2.021047	2.418905	-0.125441	2.021047	1.992039	-0.101920	1.695040	1.849751	-0.062715	1.287572	1.707462	-0.783979	9.403016	12.661857	0.000000	0.000000	23.874763	-8.628501	-1.531913	7.138657	-13.460989	115.290565	7.593141	4.594964	5.279592	-3.470435	8.195669	-8.913028	71.401473	29.187207	59.302424	-3.374164	5.723357
2.271186	2.590090	-2.858669	88.173902	0.310257	0.776486	0.651214	-4.643502	3.010885	14.036305	2.012454	0.035124	17.321194	-6.872908	0.000000	-4.584375	-6.362371	2.223127	3.124293	0.054529	21.460030	-3.048336	0.000000	-0.105044	0.799944	2.156029	-0.195078	1.063925	2.290781	-0.172577	1.944983	2.290781	-0.120055	1.944983	1.886525	-0.097544	1.631245	1.751774	-0.060022	1.239113	1.617022	-0.750320	9.049122	11.991187	0.000000	0.000000	23.986078	-8.068733	-1.838297	7.092381	-12.872821	119.477529	6.652867	4.419273	5.441298	-3.854293	9.372263	-8.742469	81.918704	24.171325	51.156243	-3.531995	3.854348
2.288136	2.552208	-2.735002	88.502459	0.311071	0.776322	0.649683	-4.964065	3.057460	14.233323	1.720529	0.030029	17.195593	-7.443261	0.000000	-4.658268	-6.413605	2.394929	3.247679	0.056683	21.688141	-2.947305	0.000000	-0.098934	0.759658	2.063328	-0.183730	1.010345	2.192286	-0.162538	1.847033	2.192286	-0.113071	1.847033	1.805412	-0.091870	1.549095	1.676454	-0.056531	1.176711	1.547496	-0.706673	8.593405	11.475609	0.000000	0.000000	24.130353	-7.439032	-2.147022	7.062462	-12.267204	122.892497	5.837032	4.234697	5.565007	-4.120174	10.414835	-8.734010	92.293836	19.947718	42.966289	-3.528130	2.266634
2.305085	2.460358	-2.629936	88.658329	0.312183	0.776107	0.648221	-5.235277	3.043589	14.434147	1.442387	0.025174	17.164258	-7.769624	0.000000	-4.744950	-6.408599	2.212805	3.336385	0.058231	21.980693	-2.594164	0.000000	-0.094064	0.711427	2.006949	-0.174686	0.946198	2.132383	-0.154538	1.729764	2.132383	-0.107506	1.729764	1.756080	-0.087348	1.450742	1.630646	-0.053748	1.102001	1.505212	-0.671889	8.047806	11.162047	0.000000	0.000000	24.306288	-6.810533	-2.577245	7.055469	-11.629876	125.940801	5.049052	4.021907	5.779939	-4.223176	11.285410	-8.882968	102.094101	16.606333	34.809288	-3.429661	1.064078
2.322034	2.302458	-2.552770	88.653767	0.313516	0.775834	0.646916	-5.428557	2.957157	14.583848	1.204374	0.021020	17.242184	-7.834477	0.000000	-4.813519	-6.335579	1.676613	3.415979	0.059620	22.349214	-1.975913	0.000000	-0.090258	0.655344	1.986031	-0.167618	0.871608	2.110158	-0.148284	1.593404	2.110158	-0.103156	1.593404	1.737777	-0.083813	1.336378	1.613650	-0.051573	1.015128	1.489523	-0.644702	7.413386	11.045710	0.000000	0.000000	24.506509	-6.147140	-3.019585	7.043831	-11.010682	127.823387	4.464118	3.834454	5.927191	-4.136734	11.913206	-9.144195	110.951329	14.139822	27.073921	-3.204387	0.297535
2.338983	2.141693	-2.496199	88.533261	0.314971	0.775543	0.645820	-5.556414	2.861305	14.638822	1.010356	0.017634	17.418081	-7.626687	0.000000	-4.865335	-6.263375	0.836975	3.499505	0.061078	22.804066	-1.101455	0.000000	-0.088764	0.600445	1.993038	-0.164844	0.798592	2.117603	-0.145831	1.459922	2.117603	-0.101449	1.459922	1.743908	-0.082427	1.224428	1.619343	-0.050720	0.930090	1.494779	-0.634035	6.792356	11.084680	0.000000	0.000000	24.695598	-5.565131	-3.485834	7.030318	-10.457222	128.514790	4.117691	3.753720	6.017039	-3.921573	12.278583	-9.483702	118.568622	12.507315	20.017105	-2.971026	-0.117498
2.355932	1.968011	-2.456040	88.343031	0.316439	0.775255	0.644958	-5.622968	2.746135	14.565098	0.863437	0.015070	17.695328	-7.179039	0.000000	-4.884285	-6.186449	-0.303410	3.609144	0.062991	23.341343	0.075618	0.000000	-0.090600	0.547157	2.018691	-0.168253	0.727719	2.144859	-0.148846	1.330358	2.144859	-0.103546	1.330358	1.766354	-0.084131	1.115763	1.640186	-0.051769	0.847546	1.514018	-0.647144	6.189550	11.227352	0.000000	0.000000	24.859262	-5.055693	-3.906533	7.020126	-9.982770	127.929050	4.040599	3.828128	6.030889	-3.625726	12.396783	-9.880692	124.768251	11.632980	14.059292	-2.736495	-0.212410
2.372881	1.799427	-2.435075	88.109384	0.317828	0.775005	0.644367	-5.628086	2.629559	14.426244	0.763031	0.013317	18.006987	-6.610259	0.000000	-4.854725	-6.111415	-1.494513	3.762509	0.065668	23.896945	1.249590	0.000000	-0.095367	0.499430	2.053643	-0.177107	0.664241	2.181996	-0.156679	1.214313	2.181996	-0.108995	1.214313	1.796938	-0.088558	1.018437	1.668585	-0.054493	0.773617	1.540232	-0.681199	5.649648	11.421746	0.000000	0.000000	24.972015	-4.639196	-4.231414	7.064281	-9.569110	126.683120	4.145895	3.724188	6.047686	-3.386152	12.311357	-10.288369	129.460229	11.363174	9.546641	-2.484423	-0.004608
